<mxfile host="app.diagrams.net" modified="2023-04-13T15:29:26.974Z" agent="Mozilla/5.0 (Windows NT 10.0; Win64; x64) AppleWebKit/537.36 (KHTML, like Gecko) Chrome/112.0.0.0 Safari/537.36 Edg/112.0.1722.39" etag="kmxInp7hritD2zuAgfdr" version="21.1.2" type="device">
  <diagram name="Page-1" id="P-TcmAj-4zmbZeS9kP6L">
    <mxGraphModel dx="2818" dy="1385" grid="1" gridSize="10" guides="1" tooltips="1" connect="1" arrows="1" fold="1" page="1" pageScale="1" pageWidth="850" pageHeight="1100" math="0" shadow="0">
      <root>
        <mxCell id="0" />
        <mxCell id="1" parent="0" />
        <mxCell id="YsHqR0hmu1ckF7MBj5dS-63" value="" style="rounded=1;whiteSpace=wrap;html=1;" vertex="1" parent="1">
          <mxGeometry x="-770" y="1330" width="100" height="30" as="geometry" />
        </mxCell>
        <mxCell id="YsHqR0hmu1ckF7MBj5dS-19" value="" style="whiteSpace=wrap;html=1;aspect=fixed;" vertex="1" parent="1">
          <mxGeometry x="-760" y="120" width="180" height="180" as="geometry" />
        </mxCell>
        <mxCell id="YsHqR0hmu1ckF7MBj5dS-20" value="" style="whiteSpace=wrap;html=1;aspect=fixed;" vertex="1" parent="1">
          <mxGeometry x="-220" y="640" width="180" height="180" as="geometry" />
        </mxCell>
        <mxCell id="YsHqR0hmu1ckF7MBj5dS-21" value="" style="whiteSpace=wrap;html=1;aspect=fixed;" vertex="1" parent="1">
          <mxGeometry x="-490" y="640" width="180" height="180" as="geometry" />
        </mxCell>
        <mxCell id="YsHqR0hmu1ckF7MBj5dS-22" value="" style="whiteSpace=wrap;html=1;aspect=fixed;" vertex="1" parent="1">
          <mxGeometry x="-760" y="640" width="180" height="180" as="geometry" />
        </mxCell>
        <mxCell id="YsHqR0hmu1ckF7MBj5dS-23" value="" style="whiteSpace=wrap;html=1;aspect=fixed;" vertex="1" parent="1">
          <mxGeometry x="-220" y="380" width="180" height="180" as="geometry" />
        </mxCell>
        <mxCell id="YsHqR0hmu1ckF7MBj5dS-24" value="" style="whiteSpace=wrap;html=1;aspect=fixed;" vertex="1" parent="1">
          <mxGeometry x="-490" y="370" width="180" height="180" as="geometry" />
        </mxCell>
        <mxCell id="YsHqR0hmu1ckF7MBj5dS-25" value="" style="whiteSpace=wrap;html=1;aspect=fixed;" vertex="1" parent="1">
          <mxGeometry x="-760" y="370" width="180" height="180" as="geometry" />
        </mxCell>
        <mxCell id="YsHqR0hmu1ckF7MBj5dS-26" value="" style="whiteSpace=wrap;html=1;aspect=fixed;" vertex="1" parent="1">
          <mxGeometry x="-220" y="120" width="180" height="180" as="geometry" />
        </mxCell>
        <mxCell id="YsHqR0hmu1ckF7MBj5dS-27" value="" style="whiteSpace=wrap;html=1;aspect=fixed;" vertex="1" parent="1">
          <mxGeometry x="-490" y="120" width="180" height="180" as="geometry" />
        </mxCell>
        <mxCell id="YsHqR0hmu1ckF7MBj5dS-30" value="" style="rounded=0;whiteSpace=wrap;html=1;" vertex="1" parent="1">
          <mxGeometry x="-780" y="10" width="750" height="60" as="geometry" />
        </mxCell>
        <mxCell id="YsHqR0hmu1ckF7MBj5dS-33" value="ITEM IMAGE" style="text;html=1;strokeColor=none;fillColor=none;align=center;verticalAlign=middle;whiteSpace=wrap;rounded=0;fontSize=26;" vertex="1" parent="1">
          <mxGeometry x="-755" y="140" width="170" height="80" as="geometry" />
        </mxCell>
        <mxCell id="YsHqR0hmu1ckF7MBj5dS-34" value="Name&lt;br&gt;Price&lt;br&gt;Quantity" style="text;html=1;strokeColor=none;fillColor=none;align=center;verticalAlign=middle;whiteSpace=wrap;rounded=0;" vertex="1" parent="1">
          <mxGeometry x="-740" y="220" width="60" height="30" as="geometry" />
        </mxCell>
        <mxCell id="YsHqR0hmu1ckF7MBj5dS-38" value="ITEM IMAGE" style="text;html=1;strokeColor=none;fillColor=none;align=center;verticalAlign=middle;whiteSpace=wrap;rounded=0;fontSize=26;" vertex="1" parent="1">
          <mxGeometry x="-485" y="140" width="170" height="80" as="geometry" />
        </mxCell>
        <mxCell id="YsHqR0hmu1ckF7MBj5dS-39" value="ITEM IMAGE" style="text;html=1;strokeColor=none;fillColor=none;align=center;verticalAlign=middle;whiteSpace=wrap;rounded=0;fontSize=26;" vertex="1" parent="1">
          <mxGeometry x="-215" y="140" width="170" height="80" as="geometry" />
        </mxCell>
        <mxCell id="YsHqR0hmu1ckF7MBj5dS-40" value="ITEM IMAGE" style="text;html=1;strokeColor=none;fillColor=none;align=center;verticalAlign=middle;whiteSpace=wrap;rounded=0;fontSize=26;" vertex="1" parent="1">
          <mxGeometry x="-755" y="410" width="170" height="80" as="geometry" />
        </mxCell>
        <mxCell id="YsHqR0hmu1ckF7MBj5dS-41" value="ITEM IMAGE" style="text;html=1;strokeColor=none;fillColor=none;align=center;verticalAlign=middle;whiteSpace=wrap;rounded=0;fontSize=26;" vertex="1" parent="1">
          <mxGeometry x="-485" y="410" width="170" height="80" as="geometry" />
        </mxCell>
        <mxCell id="YsHqR0hmu1ckF7MBj5dS-42" value="ITEM IMAGE" style="text;html=1;strokeColor=none;fillColor=none;align=center;verticalAlign=middle;whiteSpace=wrap;rounded=0;fontSize=26;" vertex="1" parent="1">
          <mxGeometry x="-215" y="410" width="170" height="80" as="geometry" />
        </mxCell>
        <mxCell id="YsHqR0hmu1ckF7MBj5dS-43" value="ITEM IMAGE" style="text;html=1;strokeColor=none;fillColor=none;align=center;verticalAlign=middle;whiteSpace=wrap;rounded=0;fontSize=26;" vertex="1" parent="1">
          <mxGeometry x="-760" y="670" width="170" height="80" as="geometry" />
        </mxCell>
        <mxCell id="YsHqR0hmu1ckF7MBj5dS-44" value="ITEM IMAGE" style="text;html=1;strokeColor=none;fillColor=none;align=center;verticalAlign=middle;whiteSpace=wrap;rounded=0;fontSize=26;" vertex="1" parent="1">
          <mxGeometry x="-485" y="670" width="170" height="80" as="geometry" />
        </mxCell>
        <mxCell id="YsHqR0hmu1ckF7MBj5dS-45" value="ITEM IMAGE" style="text;html=1;strokeColor=none;fillColor=none;align=center;verticalAlign=middle;whiteSpace=wrap;rounded=0;fontSize=26;" vertex="1" parent="1">
          <mxGeometry x="-215" y="670" width="170" height="80" as="geometry" />
        </mxCell>
        <mxCell id="YsHqR0hmu1ckF7MBj5dS-46" value="Name&lt;br&gt;Price&lt;br&gt;Quantity" style="text;html=1;strokeColor=none;fillColor=none;align=center;verticalAlign=middle;whiteSpace=wrap;rounded=0;" vertex="1" parent="1">
          <mxGeometry x="-470" y="230" width="60" height="30" as="geometry" />
        </mxCell>
        <mxCell id="YsHqR0hmu1ckF7MBj5dS-47" value="Name&lt;br&gt;Price&lt;br&gt;Quantity" style="text;html=1;strokeColor=none;fillColor=none;align=center;verticalAlign=middle;whiteSpace=wrap;rounded=0;" vertex="1" parent="1">
          <mxGeometry x="-200" y="230" width="60" height="30" as="geometry" />
        </mxCell>
        <mxCell id="YsHqR0hmu1ckF7MBj5dS-48" value="Name&lt;br&gt;Price&lt;br&gt;Quantity" style="text;html=1;strokeColor=none;fillColor=none;align=center;verticalAlign=middle;whiteSpace=wrap;rounded=0;" vertex="1" parent="1">
          <mxGeometry x="-750" y="490" width="60" height="30" as="geometry" />
        </mxCell>
        <mxCell id="YsHqR0hmu1ckF7MBj5dS-49" value="Name&lt;br&gt;Price&lt;br&gt;Quantity" style="text;html=1;strokeColor=none;fillColor=none;align=center;verticalAlign=middle;whiteSpace=wrap;rounded=0;" vertex="1" parent="1">
          <mxGeometry x="-470" y="490" width="60" height="30" as="geometry" />
        </mxCell>
        <mxCell id="YsHqR0hmu1ckF7MBj5dS-50" value="Name&lt;br&gt;Price&lt;br&gt;Quantity" style="text;html=1;strokeColor=none;fillColor=none;align=center;verticalAlign=middle;whiteSpace=wrap;rounded=0;" vertex="1" parent="1">
          <mxGeometry x="-210" y="490" width="60" height="30" as="geometry" />
        </mxCell>
        <mxCell id="YsHqR0hmu1ckF7MBj5dS-51" value="Name&lt;br&gt;Price&lt;br&gt;Quantity" style="text;html=1;strokeColor=none;fillColor=none;align=center;verticalAlign=middle;whiteSpace=wrap;rounded=0;" vertex="1" parent="1">
          <mxGeometry x="-750" y="760" width="60" height="30" as="geometry" />
        </mxCell>
        <mxCell id="YsHqR0hmu1ckF7MBj5dS-52" value="Name&lt;br&gt;Price&lt;br&gt;Quantity" style="text;html=1;strokeColor=none;fillColor=none;align=center;verticalAlign=middle;whiteSpace=wrap;rounded=0;" vertex="1" parent="1">
          <mxGeometry x="-470" y="750" width="60" height="30" as="geometry" />
        </mxCell>
        <mxCell id="YsHqR0hmu1ckF7MBj5dS-53" value="Name&lt;br&gt;Price&lt;br&gt;Quantity" style="text;html=1;strokeColor=none;fillColor=none;align=center;verticalAlign=middle;whiteSpace=wrap;rounded=0;" vertex="1" parent="1">
          <mxGeometry x="-200" y="750" width="60" height="30" as="geometry" />
        </mxCell>
        <mxCell id="YsHqR0hmu1ckF7MBj5dS-54" value="&lt;font style=&quot;font-size: 19px;&quot;&gt;HEADER&lt;/font&gt;" style="text;html=1;strokeColor=none;fillColor=none;align=center;verticalAlign=middle;whiteSpace=wrap;rounded=0;" vertex="1" parent="1">
          <mxGeometry x="-435" y="25" width="60" height="30" as="geometry" />
        </mxCell>
        <mxCell id="YsHqR0hmu1ckF7MBj5dS-55" value="&lt;font style=&quot;font-size: 19px;&quot;&gt;CHECKOUT&lt;/font&gt;" style="text;html=1;strokeColor=none;fillColor=none;align=center;verticalAlign=middle;whiteSpace=wrap;rounded=0;" vertex="1" parent="1">
          <mxGeometry x="-435" y="80" width="60" height="30" as="geometry" />
        </mxCell>
        <mxCell id="YsHqR0hmu1ckF7MBj5dS-56" value="&#xa;&lt;div style=&quot;box-sizing: border-box; --bs-gutter-x:1.5rem; --bs-gutter-y:0; display: flex; flex-wrap: wrap; margin-top: calc(-1 * var(--bs-gutter-y)); margin-right: calc(-0.5 * var(--bs-gutter-x)); margin-left: calc(-0.5 * var(--bs-gutter-x)); color: rgb(33, 37, 41); font-family: system-ui, -apple-system, &amp;quot;Segoe UI&amp;quot;, Roboto, &amp;quot;Helvetica Neue&amp;quot;, &amp;quot;Noto Sans&amp;quot;, &amp;quot;Liberation Sans&amp;quot;, Arial, sans-serif, &amp;quot;Apple Color Emoji&amp;quot;, &amp;quot;Segoe UI Emoji&amp;quot;, &amp;quot;Segoe UI Symbol&amp;quot;, &amp;quot;Noto Color Emoji&amp;quot;; font-size: 16px; font-style: normal; font-variant-ligatures: normal; font-variant-caps: normal; font-weight: 400; letter-spacing: normal; orphans: 2; text-align: start; text-indent: 0px; text-transform: none; widows: 2; word-spacing: 0px; -webkit-text-stroke-width: 0px; background-color: rgb(255, 255, 255); text-decoration-thickness: initial; text-decoration-style: initial; text-decoration-color: initial;&quot; class=&quot;row&quot;&gt;&lt;div style=&quot;box-sizing: border-box; flex: 0 0 auto; width: 360px; max-width: 100%; padding-right: calc(var(--bs-gutter-x) * 0.5); padding-left: calc(var(--bs-gutter-x) * 0.5); margin-top: var(--bs-gutter-y); margin-bottom: 1rem !important;&quot; class=&quot;col-md-6 mb-3&quot;&gt;&lt;label style=&quot;box-sizing: border-box; display: inline-block;&quot; for=&quot;firstName&quot;&gt;First name&lt;/label&gt;&lt;input style=&quot;box-sizing: border-box; margin: 0px; font-family: inherit; font-size: 1rem; line-height: 1.5; display: block; width: 336px; padding: 0.375rem 0.75rem; font-weight: 400; color: var(--bs-body-color); background-color: var(--bs-form-control-bg); background-clip: padding-box; border: var(--bs-border-width) solid var(--bs-border-color); appearance: none; border-radius: 0.375rem; transition: border-color 0.15s ease-in-out 0s, box-shadow 0.15s ease-in-out 0s;&quot; required=&quot;&quot; id=&quot;firstName&quot; class=&quot;form-control&quot; type=&quot;text&quot;&gt;&lt;/div&gt;&lt;div style=&quot;box-sizing: border-box; flex: 0 0 auto; width: 360px; max-width: 100%; padding-right: calc(var(--bs-gutter-x) * 0.5); padding-left: calc(var(--bs-gutter-x) * 0.5); margin-top: var(--bs-gutter-y); margin-bottom: 1rem !important;&quot; class=&quot;col-md-6 mb-3&quot;&gt;&lt;label style=&quot;box-sizing: border-box; display: inline-block;&quot; for=&quot;lastName&quot;&gt;Last name&lt;/label&gt;&lt;input style=&quot;box-sizing: border-box; margin: 0px; font-family: inherit; font-size: 1rem; line-height: 1.5; display: block; width: 336px; padding: 0.375rem 0.75rem; font-weight: 400; color: var(--bs-body-color); background-color: var(--bs-form-control-bg); background-clip: padding-box; border: var(--bs-border-width) solid var(--bs-border-color); appearance: none; border-radius: 0.375rem; transition: border-color 0.15s ease-in-out 0s, box-shadow 0.15s ease-in-out 0s;&quot; required=&quot;&quot; id=&quot;lastName&quot; class=&quot;form-control&quot; type=&quot;text&quot;&gt;&lt;/div&gt;&lt;/div&gt;&lt;div style=&quot;box-sizing: border-box; color: rgb(33, 37, 41); font-family: system-ui, -apple-system, &amp;quot;Segoe UI&amp;quot;, Roboto, &amp;quot;Helvetica Neue&amp;quot;, &amp;quot;Noto Sans&amp;quot;, &amp;quot;Liberation Sans&amp;quot;, Arial, sans-serif, &amp;quot;Apple Color Emoji&amp;quot;, &amp;quot;Segoe UI Emoji&amp;quot;, &amp;quot;Segoe UI Symbol&amp;quot;, &amp;quot;Noto Color Emoji&amp;quot;; font-size: 16px; font-style: normal; font-variant-ligatures: normal; font-variant-caps: normal; font-weight: 400; letter-spacing: normal; orphans: 2; text-align: start; text-indent: 0px; text-transform: none; widows: 2; word-spacing: 0px; -webkit-text-stroke-width: 0px; background-color: rgb(255, 255, 255); text-decoration-thickness: initial; text-decoration-style: initial; text-decoration-color: initial; margin-bottom: 1rem !important;&quot; class=&quot;mb-3&quot;&gt;&lt;label style=&quot;box-sizing: border-box; display: inline-block;&quot; for=&quot;email&quot;&gt;Email address&lt;/label&gt;&lt;input style=&quot;box-sizing: border-box; margin: 0px; font-family: inherit; font-size: 1rem; line-height: 1.5; display: block; width: 696px; padding: 0.375rem 0.75rem; font-weight: 400; color: var(--bs-body-color); background-color: var(--bs-form-control-bg); background-clip: padding-box; border: var(--bs-border-width) solid var(--bs-border-color); appearance: none; border-radius: 0.375rem; transition: border-color 0.15s ease-in-out 0s, box-shadow 0.15s ease-in-out 0s;&quot; required=&quot;&quot; id=&quot;email&quot; class=&quot;form-control&quot; type=&quot;email&quot;&gt;&lt;/div&gt;&lt;div style=&quot;box-sizing: border-box; color: rgb(33, 37, 41); font-family: system-ui, -apple-system, &amp;quot;Segoe UI&amp;quot;, Roboto, &amp;quot;Helvetica Neue&amp;quot;, &amp;quot;Noto Sans&amp;quot;, &amp;quot;Liberation Sans&amp;quot;, Arial, sans-serif, &amp;quot;Apple Color Emoji&amp;quot;, &amp;quot;Segoe UI Emoji&amp;quot;, &amp;quot;Segoe UI Symbol&amp;quot;, &amp;quot;Noto Color Emoji&amp;quot;; font-size: 16px; font-style: normal; font-variant-ligatures: normal; font-variant-caps: normal; font-weight: 400; letter-spacing: normal; orphans: 2; text-align: start; text-indent: 0px; text-transform: none; widows: 2; word-spacing: 0px; -webkit-text-stroke-width: 0px; background-color: rgb(255, 255, 255); text-decoration-thickness: initial; text-decoration-style: initial; text-decoration-color: initial; margin-bottom: 1rem !important;&quot; class=&quot;mb-3&quot;&gt;&lt;label style=&quot;box-sizing: border-box; display: inline-block;&quot; for=&quot;phone&quot;&gt;Phone number&lt;/label&gt;&lt;input style=&quot;box-sizing: border-box; margin: 0px; font-family: inherit; font-size: 1rem; line-height: 1.5; display: block; width: 696px; padding: 0.375rem 0.75rem; font-weight: 400; color: var(--bs-body-color); background-color: var(--bs-form-control-bg); background-clip: padding-box; border: var(--bs-border-width) solid var(--bs-border-color); appearance: none; border-radius: 0.375rem; transition: border-color 0.15s ease-in-out 0s, box-shadow 0.15s ease-in-out 0s;&quot; required=&quot;&quot; pattern=&quot;^\d{10}$&quot; id=&quot;phone&quot; class=&quot;form-control&quot; type=&quot;tel&quot;&gt;&lt;/div&gt;&lt;div style=&quot;box-sizing: border-box; color: rgb(33, 37, 41); font-family: system-ui, -apple-system, &amp;quot;Segoe UI&amp;quot;, Roboto, &amp;quot;Helvetica Neue&amp;quot;, &amp;quot;Noto Sans&amp;quot;, &amp;quot;Liberation Sans&amp;quot;, Arial, sans-serif, &amp;quot;Apple Color Emoji&amp;quot;, &amp;quot;Segoe UI Emoji&amp;quot;, &amp;quot;Segoe UI Symbol&amp;quot;, &amp;quot;Noto Color Emoji&amp;quot;; font-size: 16px; font-style: normal; font-variant-ligatures: normal; font-variant-caps: normal; font-weight: 400; letter-spacing: normal; orphans: 2; text-align: start; text-indent: 0px; text-transform: none; widows: 2; word-spacing: 0px; -webkit-text-stroke-width: 0px; background-color: rgb(255, 255, 255); text-decoration-thickness: initial; text-decoration-style: initial; text-decoration-color: initial; margin-bottom: 1rem !important;&quot; class=&quot;mb-3&quot;&gt;&lt;label style=&quot;box-sizing: border-box; display: inline-block;&quot; for=&quot;address&quot;&gt;Address&lt;/label&gt;&lt;input style=&quot;box-sizing: border-box; margin: 0px; font-family: inherit; font-size: 1rem; line-height: 1.5; display: block; width: 696px; padding: 0.375rem 0.75rem; font-weight: 400; color: var(--bs-body-color); background-color: var(--bs-form-control-bg); background-clip: padding-box; border: var(--bs-border-width) solid var(--bs-border-color); appearance: none; border-radius: 0.375rem; transition: border-color 0.15s ease-in-out 0s, box-shadow 0.15s ease-in-out 0s;&quot; required=&quot;&quot; id=&quot;address&quot; class=&quot;form-control&quot; type=&quot;text&quot;&gt;&lt;/div&gt;&lt;div style=&quot;box-sizing: border-box; color: rgb(33, 37, 41); font-family: system-ui, -apple-system, &amp;quot;Segoe UI&amp;quot;, Roboto, &amp;quot;Helvetica Neue&amp;quot;, &amp;quot;Noto Sans&amp;quot;, &amp;quot;Liberation Sans&amp;quot;, Arial, sans-serif, &amp;quot;Apple Color Emoji&amp;quot;, &amp;quot;Segoe UI Emoji&amp;quot;, &amp;quot;Segoe UI Symbol&amp;quot;, &amp;quot;Noto Color Emoji&amp;quot;; font-size: 16px; font-style: normal; font-variant-ligatures: normal; font-variant-caps: normal; font-weight: 400; letter-spacing: normal; orphans: 2; text-align: start; text-indent: 0px; text-transform: none; widows: 2; word-spacing: 0px; -webkit-text-stroke-width: 0px; background-color: rgb(255, 255, 255); text-decoration-thickness: initial; text-decoration-style: initial; text-decoration-color: initial; margin-bottom: 1rem !important;&quot; class=&quot;mb-3&quot;&gt;&lt;label style=&quot;box-sizing: border-box; display: inline-block;&quot; for=&quot;creditCard&quot;&gt;Credit card number&lt;/label&gt;&lt;input style=&quot;box-sizing: border-box; margin: 0px; font-family: inherit; font-size: 1rem; line-height: 1.5; display: block; width: 696px; padding: 0.375rem 0.75rem; font-weight: 400; color: var(--bs-body-color); background-color: var(--bs-form-control-bg); background-clip: padding-box; border: var(--bs-border-width) solid var(--bs-border-color); appearance: none; border-radius: 0.375rem; transition: border-color 0.15s ease-in-out 0s, box-shadow 0.15s ease-in-out 0s;&quot; required=&quot;&quot; pattern=&quot;^\d{16}$&quot; id=&quot;creditCard&quot; class=&quot;form-control&quot; type=&quot;text&quot;&gt;&lt;/div&gt;&lt;div style=&quot;box-sizing: border-box; --bs-gutter-x:1.5rem; --bs-gutter-y:0; display: flex; flex-wrap: wrap; margin-top: calc(-1 * var(--bs-gutter-y)); margin-right: calc(-0.5 * var(--bs-gutter-x)); margin-left: calc(-0.5 * var(--bs-gutter-x)); color: rgb(33, 37, 41); font-family: system-ui, -apple-system, &amp;quot;Segoe UI&amp;quot;, Roboto, &amp;quot;Helvetica Neue&amp;quot;, &amp;quot;Noto Sans&amp;quot;, &amp;quot;Liberation Sans&amp;quot;, Arial, sans-serif, &amp;quot;Apple Color Emoji&amp;quot;, &amp;quot;Segoe UI Emoji&amp;quot;, &amp;quot;Segoe UI Symbol&amp;quot;, &amp;quot;Noto Color Emoji&amp;quot;; font-size: 16px; font-style: normal; font-variant-ligatures: normal; font-variant-caps: normal; font-weight: 400; letter-spacing: normal; orphans: 2; text-align: start; text-indent: 0px; text-transform: none; widows: 2; word-spacing: 0px; -webkit-text-stroke-width: 0px; background-color: rgb(255, 255, 255); text-decoration-thickness: initial; text-decoration-style: initial; text-decoration-color: initial;&quot; class=&quot;row&quot;&gt;&lt;div style=&quot;box-sizing: border-box; flex: 0 0 auto; width: 360px; max-width: 100%; padding-right: calc(var(--bs-gutter-x) * 0.5); padding-left: calc(var(--bs-gutter-x) * 0.5); margin-top: var(--bs-gutter-y); margin-bottom: 1rem !important;&quot; class=&quot;col-md-6 mb-3&quot;&gt;&lt;label style=&quot;box-sizing: border-box; display: inline-block;&quot; for=&quot;expiry&quot;&gt;Expiry&lt;/label&gt;&lt;input style=&quot;box-sizing: border-box; margin: 0px; font-family: inherit; font-size: 1rem; line-height: 1.5; display: block; width: 336px; padding: 0.375rem 0.75rem; font-weight: 400; color: var(--bs-body-color); background-color: var(--bs-form-control-bg); background-clip: padding-box; border: var(--bs-border-width) solid var(--bs-border-color); appearance: none; border-radius: 0.375rem; transition: border-color 0.15s ease-in-out 0s, box-shadow 0.15s ease-in-out 0s;&quot; required=&quot;&quot; pattern=&quot;^(0[1-9]|1[0-2])\/?([0-9]{4}|[0-9]{2})$&quot; id=&quot;expiry&quot; class=&quot;form-control&quot; type=&quot;text&quot;&gt;&lt;/div&gt;&lt;div style=&quot;box-sizing: border-box; flex: 0 0 auto; width: 360px; max-width: 100%; padding-right: calc(var(--bs-gutter-x) * 0.5); padding-left: calc(var(--bs-gutter-x) * 0.5); margin-top: var(--bs-gutter-y); margin-bottom: 1rem !important;&quot; class=&quot;col-md-6 mb-3&quot;&gt;&lt;label style=&quot;box-sizing: border-box; display: inline-block;&quot; for=&quot;securityCode&quot;&gt;Security code&lt;/label&gt;&lt;input style=&quot;box-sizing: border-box; margin: 0px; font-family: inherit; font-size: 1rem; line-height: 1.5; display: block; width: 336px; padding: 0.375rem 0.75rem; font-weight: 400; color: var(--bs-body-color); background-color: var(--bs-form-control-bg); background-clip: padding-box; border: var(--bs-border-width) solid var(--bs-border-color); appearance: none; border-radius: 0.375rem; transition: border-color 0.15s ease-in-out 0s, box-shadow 0.15s ease-in-out 0s;&quot; required=&quot;&quot; pattern=&quot;^\d{3}$&quot; id=&quot;securityCode&quot; class=&quot;form-control&quot; type=&quot;text&quot;&gt;&lt;/div&gt;&lt;/div&gt;&lt;br class=&quot;Apple-interchange-newline&quot;&gt;&#xa;&#xa;" style="text;html=1;strokeColor=none;fillColor=none;align=center;verticalAlign=middle;whiteSpace=wrap;rounded=0;" vertex="1" parent="1">
          <mxGeometry x="-785" y="930" width="740" height="370" as="geometry" />
        </mxCell>
        <mxCell id="YsHqR0hmu1ckF7MBj5dS-59" value="" style="rounded=0;whiteSpace=wrap;html=1;" vertex="1" parent="1">
          <mxGeometry x="-785" y="1380" width="750" height="60" as="geometry" />
        </mxCell>
        <mxCell id="YsHqR0hmu1ckF7MBj5dS-60" value="&lt;font style=&quot;font-size: 19px;&quot;&gt;FOOTER&lt;/font&gt;" style="text;html=1;strokeColor=none;fillColor=none;align=center;verticalAlign=middle;whiteSpace=wrap;rounded=0;" vertex="1" parent="1">
          <mxGeometry x="-440" y="1395" width="60" height="30" as="geometry" />
        </mxCell>
        <mxCell id="YsHqR0hmu1ckF7MBj5dS-61" value="Confirm Button" style="text;html=1;strokeColor=none;fillColor=none;align=center;verticalAlign=middle;whiteSpace=wrap;rounded=0;" vertex="1" parent="1">
          <mxGeometry x="-750" y="1330" width="60" height="30" as="geometry" />
        </mxCell>
        <mxCell id="YsHqR0hmu1ckF7MBj5dS-64" value="" style="whiteSpace=wrap;html=1;aspect=fixed;" vertex="1" parent="1">
          <mxGeometry x="215" y="142.5" width="180" height="180" as="geometry" />
        </mxCell>
        <mxCell id="YsHqR0hmu1ckF7MBj5dS-68" value="GAME IMAGE" style="text;html=1;strokeColor=none;fillColor=none;align=center;verticalAlign=middle;whiteSpace=wrap;rounded=0;fontSize=26;" vertex="1" parent="1">
          <mxGeometry x="220" y="162.5" width="170" height="80" as="geometry" />
        </mxCell>
        <mxCell id="YsHqR0hmu1ckF7MBj5dS-69" value="Name&lt;br&gt;Release Date&lt;br&gt;Genre&lt;br&gt;Rating" style="text;html=1;strokeColor=none;fillColor=none;align=center;verticalAlign=middle;whiteSpace=wrap;rounded=0;" vertex="1" parent="1">
          <mxGeometry x="252.5" y="242.5" width="105" height="30" as="geometry" />
        </mxCell>
        <mxCell id="YsHqR0hmu1ckF7MBj5dS-90" value="" style="rounded=0;whiteSpace=wrap;html=1;" vertex="1" parent="1">
          <mxGeometry x="60" y="10" width="750" height="60" as="geometry" />
        </mxCell>
        <mxCell id="YsHqR0hmu1ckF7MBj5dS-91" value="&lt;font style=&quot;font-size: 19px;&quot;&gt;HEADER&lt;/font&gt;" style="text;html=1;strokeColor=none;fillColor=none;align=center;verticalAlign=middle;whiteSpace=wrap;rounded=0;" vertex="1" parent="1">
          <mxGeometry x="405" y="25" width="60" height="30" as="geometry" />
        </mxCell>
        <mxCell id="YsHqR0hmu1ckF7MBj5dS-93" value="&lt;span style=&quot;font-size: 19px;&quot;&gt;PRODUCTS&lt;/span&gt;" style="text;html=1;strokeColor=none;fillColor=none;align=center;verticalAlign=middle;whiteSpace=wrap;rounded=0;" vertex="1" parent="1">
          <mxGeometry x="405" y="90" width="60" height="30" as="geometry" />
        </mxCell>
        <mxCell id="YsHqR0hmu1ckF7MBj5dS-97" value="" style="whiteSpace=wrap;html=1;aspect=fixed;" vertex="1" parent="1">
          <mxGeometry x="215" y="390" width="180" height="180" as="geometry" />
        </mxCell>
        <mxCell id="YsHqR0hmu1ckF7MBj5dS-98" value="GAME IMAGE" style="text;html=1;strokeColor=none;fillColor=none;align=center;verticalAlign=middle;whiteSpace=wrap;rounded=0;fontSize=26;" vertex="1" parent="1">
          <mxGeometry x="220" y="410" width="170" height="80" as="geometry" />
        </mxCell>
        <mxCell id="YsHqR0hmu1ckF7MBj5dS-99" value="Name&lt;br&gt;Release Date&lt;br&gt;Genre&lt;br&gt;Rating" style="text;html=1;strokeColor=none;fillColor=none;align=center;verticalAlign=middle;whiteSpace=wrap;rounded=0;" vertex="1" parent="1">
          <mxGeometry x="252.5" y="490" width="105" height="30" as="geometry" />
        </mxCell>
        <mxCell id="YsHqR0hmu1ckF7MBj5dS-100" value="" style="whiteSpace=wrap;html=1;aspect=fixed;" vertex="1" parent="1">
          <mxGeometry x="460" y="390" width="180" height="180" as="geometry" />
        </mxCell>
        <mxCell id="YsHqR0hmu1ckF7MBj5dS-101" value="GAME IMAGE" style="text;html=1;strokeColor=none;fillColor=none;align=center;verticalAlign=middle;whiteSpace=wrap;rounded=0;fontSize=26;" vertex="1" parent="1">
          <mxGeometry x="465" y="410" width="170" height="80" as="geometry" />
        </mxCell>
        <mxCell id="YsHqR0hmu1ckF7MBj5dS-102" value="Name&lt;br&gt;Release Date&lt;br&gt;Genre&lt;br&gt;Rating" style="text;html=1;strokeColor=none;fillColor=none;align=center;verticalAlign=middle;whiteSpace=wrap;rounded=0;" vertex="1" parent="1">
          <mxGeometry x="497.5" y="490" width="105" height="30" as="geometry" />
        </mxCell>
        <mxCell id="YsHqR0hmu1ckF7MBj5dS-106" value="" style="whiteSpace=wrap;html=1;aspect=fixed;" vertex="1" parent="1">
          <mxGeometry x="455" y="145" width="180" height="180" as="geometry" />
        </mxCell>
        <mxCell id="YsHqR0hmu1ckF7MBj5dS-107" value="GAME IMAGE" style="text;html=1;strokeColor=none;fillColor=none;align=center;verticalAlign=middle;whiteSpace=wrap;rounded=0;fontSize=26;" vertex="1" parent="1">
          <mxGeometry x="460" y="165" width="170" height="80" as="geometry" />
        </mxCell>
        <mxCell id="YsHqR0hmu1ckF7MBj5dS-108" value="Name&lt;br&gt;Release Date&lt;br&gt;Genre&lt;br&gt;Rating" style="text;html=1;strokeColor=none;fillColor=none;align=center;verticalAlign=middle;whiteSpace=wrap;rounded=0;" vertex="1" parent="1">
          <mxGeometry x="492.5" y="245" width="105" height="30" as="geometry" />
        </mxCell>
        <mxCell id="YsHqR0hmu1ckF7MBj5dS-109" value="" style="whiteSpace=wrap;html=1;aspect=fixed;" vertex="1" parent="1">
          <mxGeometry x="215" y="620" width="180" height="180" as="geometry" />
        </mxCell>
        <mxCell id="YsHqR0hmu1ckF7MBj5dS-110" value="GAME IMAGE" style="text;html=1;strokeColor=none;fillColor=none;align=center;verticalAlign=middle;whiteSpace=wrap;rounded=0;fontSize=26;" vertex="1" parent="1">
          <mxGeometry x="220" y="640" width="170" height="80" as="geometry" />
        </mxCell>
        <mxCell id="YsHqR0hmu1ckF7MBj5dS-111" value="Name&lt;br&gt;Release Date&lt;br&gt;Genre&lt;br&gt;Rating" style="text;html=1;strokeColor=none;fillColor=none;align=center;verticalAlign=middle;whiteSpace=wrap;rounded=0;" vertex="1" parent="1">
          <mxGeometry x="252.5" y="720" width="105" height="30" as="geometry" />
        </mxCell>
        <mxCell id="YsHqR0hmu1ckF7MBj5dS-112" value="" style="whiteSpace=wrap;html=1;aspect=fixed;" vertex="1" parent="1">
          <mxGeometry x="460" y="620" width="180" height="180" as="geometry" />
        </mxCell>
        <mxCell id="YsHqR0hmu1ckF7MBj5dS-113" value="GAME IMAGE" style="text;html=1;strokeColor=none;fillColor=none;align=center;verticalAlign=middle;whiteSpace=wrap;rounded=0;fontSize=26;" vertex="1" parent="1">
          <mxGeometry x="465" y="640" width="170" height="80" as="geometry" />
        </mxCell>
        <mxCell id="YsHqR0hmu1ckF7MBj5dS-114" value="Name&lt;br&gt;Release Date&lt;br&gt;Genre&lt;br&gt;Rating" style="text;html=1;strokeColor=none;fillColor=none;align=center;verticalAlign=middle;whiteSpace=wrap;rounded=0;" vertex="1" parent="1">
          <mxGeometry x="497.5" y="720" width="105" height="30" as="geometry" />
        </mxCell>
        <mxCell id="YsHqR0hmu1ckF7MBj5dS-116" value="" style="rounded=0;whiteSpace=wrap;html=1;" vertex="1" parent="1">
          <mxGeometry x="50" y="850" width="750" height="60" as="geometry" />
        </mxCell>
        <mxCell id="YsHqR0hmu1ckF7MBj5dS-117" value="&lt;font style=&quot;font-size: 19px;&quot;&gt;FOOTER&lt;/font&gt;" style="text;html=1;strokeColor=none;fillColor=none;align=center;verticalAlign=middle;whiteSpace=wrap;rounded=0;" vertex="1" parent="1">
          <mxGeometry x="395" y="865" width="60" height="30" as="geometry" />
        </mxCell>
      </root>
    </mxGraphModel>
  </diagram>
</mxfile>
